/* XPM */
static char * tkrat_xpm[] = {
"64 64 32 1",
" 	c None",
".	c #000000",
"+	c #FFFF91",
"@	c #FFFFB2",
"#	c #FFFFA2",
"$	c #FFFF7B",
"%	c #FFF74D",
"&	c #FFFF68",
"*	c #FFFF84",
"=	c #D4882A",
"-	c #CF8529",
";	c #CA8128",
">	c #FFFFBB",
",	c #AD6F22",
"'	c #FFFF59",
")	c #540480",
"!	c #750680",
"~	c #4B047A",
"{	c #4D047D",
"]	c #7B0680",
"^	c #800980",
"/	c #56058C",
"(	c #800A80",
"_	c #3F0366",
":	c #800880",
"<	c #FFFFFF",
"[	c #CFBF91",
"}	c #FDEAB1",
"|	c #F1DFA9",
"1	c #ECDAA5",
"2	c #FFFF82",
"3	c #E0CF9D",
"                                                                ",
"                                                                ",
"                                                                ",
"                                                                ",
"                                                                ",
"                         .  .                                   ",
"                    .....+... .                                 ",
"                  ..@+++#$%+&..                                 ",
"                 .@#*=======-%;.                                ",
"               ..>*===========,.                                ",
"               .>*============-,.                               ",
"              .>*==============,.   ..                          ",
"             .@*===============,.  .@&.    .                    ",
"             .+=,,-============,. .@*-;.  .#.                   ",
"             .%,,.;-===========,. .+==-,. .#,.                  ",
"             .,.. .%===========,. .+==,,. .$,.                  ",
"             ..  ..&-==========,. .;,,,...#.,.                  ",
"             .     .'==========,.  ....$+#$-..                  ",
"                  .@*==========,.  .@+#*===-%&.                 ",
"                  .&-=========,,. .@*========-;.                ",
"                   .'=========,.  .#=,,,,-====-,.               ",
"                  .>*=========,. .@*=,...;-====,.               ",
"                 .@*==========,. .+==,....'====,.               ",
"                ..#===========,. .#==-;..>*====,.               ",
"              ..@#*==========,,..@*===-%#*=====,.               ",
"              .@*===========,,...+=========,,,,,.               ",
"              .+===========,,.$;.+========,,.....               ",
"              .#==========,,.**,.$-======,,.)!~{].              ",
"             .@*=========,,.**=--.--=====,.)^/.../.             ",
"           . .#=========,,.**==,,,.,,,-==,.({~_.:_.             ",
"           ..>*========,,.**==,,......,,,,.^___./.              ",
"           .@*========,,.**==,,.$++++$....,._.._.               ",
"           .+=======,,,.**==,,.**====-;.<<......                ",
"           .#======,,..**===,.$*======-=.[}|.                   ",
"         ..>*=====,,.$#*====,.+========-=..[.                   ",
"        ..>*=====,,.**======,.+=========-;.........             ",
"        .@*=====,,.**=======,.$-=========-%+++++++&.            ",
"        .+=====,,.**========--.--============,,,,,,,..          ",
"        .+=====,.$*==========--.--=========,,,........          ",
"        .+====,,.#============--.,,,,,,,,,,,..     . .          ",
"        .+====,.$*=======,,,,,,,,...........      .   .         ",
"       ..#====,.+======,,,......,.<<<<<1.         .   .         ",
"       .@*===,,.#====,,,..$++++$..|[|}}[.      ...........      ",
"       .+====,.$*===,,..$#*====-%2..||}|[.    ..@+++++%$$..     ",
"       .+====,.+====,.*#*========-%2.||}[.    .@*===,,,.',.     ",
"       .+====,.+===,,.#============-,.<}|[..  .+=,,,,...+,.     ",
"       .+====,.+===,.$*=============,.<|}[..  .+=,.,.,'.#,.     ",
"       .+====,.+===,.+==============-,.<}[.'. .+=,.....**,.     ",
"       .+====,.$-==,.+===============,.<}[.=. .&-,.@++#*,,.     ",
"       .+====-,.%==,.+===============,.<}[.=. ..,,,,,,,,,..     ",
"       .&-====,.+==,.+===============,.<[[.,.  ...........      ",
"        .%====,.$-=,.+===============,.<[.,.                    ",
"        .+====-,.%=,.+==============,,.<[.,.                    ",
"        .&-====,.$-,.$-============,,.<[.,.                     ",
"         .,,-==-,.%-,.%===========,,.<<[.=.                     ",
"          ..;-==,.+=,.$-=========,,.<<[[.-.                     ",
"            .;,,,.;,,,.%========,,.<<[[.,,.                     ",
"             .,........&-=,,,,,,,.3[.[.,,.                      ",
"             ..        .,,,.........;.........                  ",
"                        ...,=====*'=,,==,..'=,.                 ",
"                          ........,......  ...                  ",
"                                  ..                            ",
"                                                                ",
"                                                                "};
