/* XPM */
/*
 * TkRat software and its included text is Copyright 1996-2002 by
 * Martin Forssén.
 *
 * The full text of the legal notice is contained in the file called
 * COPYRIGHT, included with this distribution.
 */

static char *icon[] = {
"64 64 4 1",
" 	s mask  c none",
". c #000000",
"# c #d6892b",
"a c #ffecb3",
"                                                                ",
"                                                                ",
"                                                                ",
"                                                                ",
"                                                                ",
"                         .  .                                   ",
"                    .....#... .                                 ",
"                  ..#########..                                 ",
"                 .#############.                                ",
"               ..##############.                                ",
"               .################.                               ",
"              .#################.   ..                          ",
"             .##################.  .##.    .                    ",
"             .##################. .####.  .#.                   ",
"             .###.##############. .#####. .##.                  ",
"             .#.. .#############. .#####. .##.                  ",
"             ..  ..#############. .####...#.#.                  ",
"             .     .############.  ....#####..                  ",
"                  .#############.  .##########.                 ",
"                  .#############. .############.                ",
"                   .###########.  .#############.               ",
"                  .############. .####...#######.               ",
"                 .#############. .####....######.               ",
"                ..#############. .#####..#######.               ",
"              ..###############..###############.               ",
"              .###############...###############.               ",
"              .##############.##.###########.....               ",
"              .#############.###.##########.     .              ",
"             .#############.#####.########.   ... .             ",
"           . .############.#######.#######.    .  .             ",
"           ..############.######......####.    . .              ",
"           .############.######.######....#. .. .               ",
"           .###########.######.########.aa......                ",
"           .#########..######.##########.aaa.                   ",
"         ..#########.########.###########..a.                   ",
"        ..#########.#########.############.........             ",
"        .#########.##########.#####################.            ",
"        .########.############.#####################..          ",
"        .#######.##############.##############........          ",
"        .#######.###############.###########..     . .          ",
"        .######.#################...........      .   .         ",
"       ..######.##########......#.aaaaaa.         .   .         ",
"       .#######.########..######..aaaaaa.      ...........      ",
"       .######.#######..##########..aaaaa.    ..#########..     ",
"       .######.######.##############.aaaa.    .########.##.     ",
"       .######.######.###############.aaaa..  .######...##.     ",
"       .######.#####.################.aaaa..  .###.#.##.##.     ",
"       .######.#####.#################.aaa.#. .###.....###.     ",
"       .######.#####.#################.aaa.#. .###.#######.     ",
"       .#######.####.#################.aaa.#. ..#########..     ",
"       .#######.####.#################.aaa.#.  ...........      ",
"        .######.####.#################.aa.#.                    ",
"        .#######.###.#################.aa.#.                    ",
"        .#######.###.################.aa.#.                     ",
"         .#######.###.##############.aaa.#.                     ",
"          ..#####.###.#############.aaaa.#.                     ",
"            .####.####.###########.aaaa.##.                     ",
"             .#........##########.aa.a.##.                      ",
"             ..        .###.........#.........                  ",
"                        ...##############..###.                 ",
"                          ........#......  ...                  ",
"                                  ..                            ",
"                                                                ",
"                                                                "};
